%TF.GenerationSoftware,KiCad,Pcbnew,9.0.2*%
%TF.CreationDate,2025-12-17T22:35:22-05:00*%
%TF.ProjectId,motor-driver,6d6f746f-722d-4647-9269-7665722e6b69,rev?*%
%TF.SameCoordinates,Original*%
%TF.FileFunction,Soldermask,Bot*%
%TF.FilePolarity,Negative*%
%FSLAX46Y46*%
G04 Gerber Fmt 4.6, Leading zero omitted, Abs format (unit mm)*
G04 Created by KiCad (PCBNEW 9.0.2) date 2025-12-17 22:35:22*
%MOMM*%
%LPD*%
G01*
G04 APERTURE LIST*
G04 Aperture macros list*
%AMRoundRect*
0 Rectangle with rounded corners*
0 $1 Rounding radius*
0 $2 $3 $4 $5 $6 $7 $8 $9 X,Y pos of 4 corners*
0 Add a 4 corners polygon primitive as box body*
4,1,4,$2,$3,$4,$5,$6,$7,$8,$9,$2,$3,0*
0 Add four circle primitives for the rounded corners*
1,1,$1+$1,$2,$3*
1,1,$1+$1,$4,$5*
1,1,$1+$1,$6,$7*
1,1,$1+$1,$8,$9*
0 Add four rect primitives between the rounded corners*
20,1,$1+$1,$2,$3,$4,$5,0*
20,1,$1+$1,$4,$5,$6,$7,0*
20,1,$1+$1,$6,$7,$8,$9,0*
20,1,$1+$1,$8,$9,$2,$3,0*%
G04 Aperture macros list end*
%ADD10C,2.000000*%
%ADD11R,2.000000X1.905000*%
%ADD12O,2.000000X1.905000*%
%ADD13RoundRect,0.249999X-0.850001X0.850001X-0.850001X-0.850001X0.850001X-0.850001X0.850001X0.850001X0*%
%ADD14C,2.200000*%
%ADD15C,4.000000*%
%ADD16RoundRect,0.249999X0.850001X0.850001X-0.850001X0.850001X-0.850001X-0.850001X0.850001X-0.850001X0*%
%ADD17RoundRect,0.249999X-0.850001X-0.850001X0.850001X-0.850001X0.850001X0.850001X-0.850001X0.850001X0*%
%ADD18RoundRect,0.249999X0.850001X-0.850001X0.850001X0.850001X-0.850001X0.850001X-0.850001X-0.850001X0*%
%ADD19R,1.905000X2.000000*%
%ADD20O,1.905000X2.000000*%
%ADD21RoundRect,0.250001X-1.149999X1.149999X-1.149999X-1.149999X1.149999X-1.149999X1.149999X1.149999X0*%
%ADD22C,2.800000*%
G04 APERTURE END LIST*
D10*
%TO.C,TP9*%
X77150000Y-80505000D03*
%TD*%
D11*
%TO.C,Q8*%
X130125000Y-83020000D03*
D12*
X130125000Y-80480000D03*
X130125000Y-77940000D03*
%TD*%
D10*
%TO.C,TP11*%
X82175000Y-54205000D03*
%TD*%
%TO.C,TP7*%
X75850000Y-47205000D03*
%TD*%
D13*
%TO.C,D10*%
X108925000Y-76440000D03*
D14*
X108925000Y-89140000D03*
%TD*%
D15*
%TO.C,TP16*%
X146975000Y-97905000D03*
%TD*%
D16*
%TO.C,D18*%
X110275000Y-96140000D03*
D14*
X97575000Y-96140000D03*
%TD*%
D17*
%TO.C,D20*%
X113575000Y-96140000D03*
D14*
X126275000Y-96140000D03*
%TD*%
D15*
%TO.C,TP18*%
X146975000Y-46405000D03*
%TD*%
%TO.C,TP15*%
X47250000Y-46405000D03*
%TD*%
D18*
%TO.C,D9*%
X93825000Y-89200000D03*
D14*
X93825000Y-76500000D03*
%TD*%
D19*
%TO.C,U3*%
X60210000Y-53955000D03*
D20*
X62750000Y-53955000D03*
X65290000Y-53955000D03*
%TD*%
D16*
%TO.C,D15*%
X94575000Y-96100000D03*
D14*
X81875000Y-96100000D03*
%TD*%
D18*
%TO.C,D11*%
X124525000Y-89240000D03*
D14*
X124525000Y-76540000D03*
%TD*%
D10*
%TO.C,TP1*%
X77350000Y-85705000D03*
%TD*%
%TO.C,TP8*%
X77450000Y-96605000D03*
%TD*%
D18*
%TO.C,D8*%
X125975000Y-61505000D03*
D14*
X125975000Y-48805000D03*
%TD*%
D10*
%TO.C,TP12*%
X113550000Y-48905000D03*
%TD*%
D11*
%TO.C,Q2*%
X104825000Y-55645000D03*
D12*
X104825000Y-53105000D03*
X104825000Y-50565000D03*
%TD*%
D17*
%TO.C,D19*%
X116275000Y-70505000D03*
D14*
X128975000Y-70505000D03*
%TD*%
D11*
%TO.C,Q7*%
X115625000Y-82880000D03*
D12*
X115625000Y-80340000D03*
X115625000Y-77800000D03*
%TD*%
D10*
%TO.C,TP6*%
X71650000Y-47205000D03*
%TD*%
D16*
%TO.C,D16*%
X142325000Y-96140000D03*
D14*
X129625000Y-96140000D03*
%TD*%
D18*
%TO.C,D5*%
X95675000Y-62005000D03*
D14*
X95675000Y-49305000D03*
%TD*%
D11*
%TO.C,Q6*%
X102575000Y-82820000D03*
D12*
X102575000Y-80280000D03*
X102575000Y-77740000D03*
%TD*%
D10*
%TO.C,TP14*%
X119525000Y-77040000D03*
%TD*%
D16*
%TO.C,D17*%
X112825000Y-70505000D03*
D14*
X100125000Y-70505000D03*
%TD*%
D21*
%TO.C,J2*%
X49150000Y-55105000D03*
D22*
X49150000Y-60105000D03*
X49150000Y-65105000D03*
X49150000Y-70105000D03*
X49150000Y-75105000D03*
X49150000Y-80105000D03*
X49150000Y-85105000D03*
X49150000Y-90105000D03*
%TD*%
D11*
%TO.C,Q5*%
X86825000Y-82980000D03*
D12*
X86825000Y-80440000D03*
X86825000Y-77900000D03*
%TD*%
D10*
%TO.C,TP3*%
X67750000Y-47205000D03*
%TD*%
%TO.C,TP4*%
X63550000Y-47205000D03*
%TD*%
D15*
%TO.C,TP17*%
X47250000Y-97905000D03*
%TD*%
D11*
%TO.C,Q1*%
X88175000Y-55885000D03*
D12*
X88175000Y-53345000D03*
X88175000Y-50805000D03*
%TD*%
D16*
%TO.C,D13*%
X92925000Y-70505000D03*
D14*
X80225000Y-70505000D03*
%TD*%
D10*
%TO.C,TP10*%
X53050000Y-48105000D03*
%TD*%
D18*
%TO.C,D12*%
X140025000Y-90240000D03*
D14*
X140025000Y-77540000D03*
%TD*%
D13*
%TO.C,D7*%
X137975000Y-48655000D03*
D14*
X137975000Y-61355000D03*
%TD*%
D16*
%TO.C,D14*%
X144825000Y-70505000D03*
D14*
X132125000Y-70505000D03*
%TD*%
D10*
%TO.C,TP2*%
X52850000Y-96705000D03*
%TD*%
D11*
%TO.C,Q3*%
X118975000Y-55345000D03*
D12*
X118975000Y-52805000D03*
X118975000Y-50265000D03*
%TD*%
D11*
%TO.C,Q4*%
X131975000Y-55185000D03*
D12*
X131975000Y-52645000D03*
X131975000Y-50105000D03*
%TD*%
D13*
%TO.C,D6*%
X109275000Y-49055000D03*
D14*
X109275000Y-61755000D03*
%TD*%
D10*
%TO.C,TP13*%
X90225000Y-77900000D03*
%TD*%
M02*
