M48
; DRILL file {KiCad 9.0.2} date 2025-12-17T22:39:08-0500
; FORMAT={-:-/ absolute / metric / decimal}
; #@! TF.CreationDate,2025-12-17T22:39:08-05:00
; #@! TF.GenerationSoftware,Kicad,Pcbnew,9.0.2
; #@! TF.FileFunction,MixedPlating,1,2
FMAT,2
METRIC
; #@! TA.AperFunction,Plated,PTH,ViaDrill
T1C0.300
; #@! TA.AperFunction,Plated,PTH,ComponentDrill
T2C1.000
; #@! TA.AperFunction,Plated,PTH,ComponentDrill
T3C1.100
; #@! TA.AperFunction,Plated,PTH,ComponentDrill
T4C1.300
; #@! TA.AperFunction,Plated,PTH,ComponentDrill
T5C3.000
%
G90
G05
T1
X45.55Y-61.505
X53.95Y-86.505
X54.55Y-81.305
X54.75Y-87.505
X55.55Y-93.91
X55.65Y-68.205
X56.75Y-75.505
X56.75Y-78.905
X57.188Y-62.055
X58.375Y-69.0
X58.375Y-75.35
X58.4Y-82.405
X58.4Y-84.945
X58.4Y-89.365
X58.4Y-90.635
X58.4Y-91.905
X58.4Y-93.175
X58.4Y-94.445
X60.55Y-67.405
X61.25Y-80.405
X61.35Y-52.105
X61.65Y-95.805
X61.95Y-57.005
X63.325Y-69.0
X63.325Y-70.27
X63.35Y-59.905
X63.35Y-79.865
X63.35Y-83.675
X63.35Y-84.945
X63.35Y-90.635
X63.35Y-91.905
X63.35Y-94.445
X63.35Y-95.715
X64.15Y-52.505
X64.95Y-61.605
X66.15Y-74.33
X66.15Y-77.28
X66.15Y-83.405
X66.15Y-96.755
X66.35Y-50.705
X66.35Y-75.905
X66.55Y-61.88
X68.875Y-77.975
X68.875Y-83.055
X69.1Y-91.155
X70.85Y-81.205
X71.0Y-63.545
X72.45Y-85.505
X72.45Y-87.205
X72.75Y-63.205
X73.55Y-59.305
X73.825Y-76.705
X73.825Y-81.785
X73.825Y-83.055
X74.05Y-91.155
X74.25Y-50.705
X74.25Y-89.405
X75.95Y-61.005
X75.95Y-62.275
X75.95Y-66.085
X75.95Y-67.355
X76.35Y-94.505
X78.25Y-66.105
X78.85Y-94.605
X81.075Y-65.98
X81.625Y-76.0
X84.0Y-63.87
X84.575Y-98.085
X86.875Y-65.705
X88.45Y-67.705
X97.45Y-89.305
X99.95Y-81.805
X100.025Y-91.14
X100.5Y-66.31
X102.875Y-65.005
X110.525Y-91.34
X111.975Y-62.705
X112.85Y-91.745
X127.35Y-55.805
X129.775Y-58.605
X130.475Y-89.2
T2
X52.85Y-96.705
X53.05Y-48.105
X63.55Y-47.205
X67.75Y-47.205
X71.65Y-47.205
X75.85Y-47.205
X77.15Y-80.505
X77.35Y-85.705
X77.45Y-96.605
X82.175Y-54.205
X90.225Y-77.9
X113.55Y-48.905
X119.525Y-77.04
T3
X60.21Y-53.955
X62.75Y-53.955
X65.29Y-53.955
X80.225Y-70.505
X81.875Y-96.1
X86.825Y-77.9
X86.825Y-80.44
X86.825Y-82.98
X88.175Y-50.805
X88.175Y-53.345
X88.175Y-55.885
X92.925Y-70.505
X93.825Y-76.5
X93.825Y-89.2
X94.575Y-96.1
X95.675Y-49.305
X95.675Y-62.005
X97.575Y-96.14
X100.125Y-70.505
X102.575Y-77.74
X102.575Y-80.28
X102.575Y-82.82
X104.825Y-50.565
X104.825Y-53.105
X104.825Y-55.645
X108.925Y-76.44
X108.925Y-89.14
X109.275Y-49.055
X109.275Y-61.755
X110.275Y-96.14
X112.825Y-70.505
X113.575Y-96.14
X115.625Y-77.8
X115.625Y-80.34
X115.625Y-82.88
X116.275Y-70.505
X118.975Y-50.265
X118.975Y-52.805
X118.975Y-55.345
X124.525Y-76.54
X124.525Y-89.24
X125.975Y-48.805
X125.975Y-61.505
X126.275Y-96.14
X128.975Y-70.505
X129.625Y-96.14
X130.125Y-77.94
X130.125Y-80.48
X130.125Y-83.02
X131.975Y-50.105
X131.975Y-52.645
X131.975Y-55.185
X132.125Y-70.505
X137.975Y-48.655
X137.975Y-61.355
X140.025Y-77.54
X140.025Y-90.24
X142.325Y-96.14
X144.825Y-70.505
T4
X49.15Y-55.105
X49.15Y-60.105
X49.15Y-65.105
X49.15Y-70.105
X49.15Y-75.105
X49.15Y-80.105
X49.15Y-85.105
X49.15Y-90.105
T5
X47.25Y-46.405
X47.25Y-97.905
X146.975Y-46.405
X146.975Y-97.905
M30
