%TF.GenerationSoftware,KiCad,Pcbnew,9.0.2*%
%TF.CreationDate,2025-12-17T22:35:22-05:00*%
%TF.ProjectId,motor-driver,6d6f746f-722d-4647-9269-7665722e6b69,rev?*%
%TF.SameCoordinates,Original*%
%TF.FileFunction,Paste,Top*%
%TF.FilePolarity,Positive*%
%FSLAX46Y46*%
G04 Gerber Fmt 4.6, Leading zero omitted, Abs format (unit mm)*
G04 Created by KiCad (PCBNEW 9.0.2) date 2025-12-17 22:35:22*
%MOMM*%
%LPD*%
G01*
G04 APERTURE LIST*
G04 Aperture macros list*
%AMRoundRect*
0 Rectangle with rounded corners*
0 $1 Rounding radius*
0 $2 $3 $4 $5 $6 $7 $8 $9 X,Y pos of 4 corners*
0 Add a 4 corners polygon primitive as box body*
4,1,4,$2,$3,$4,$5,$6,$7,$8,$9,$2,$3,0*
0 Add four circle primitives for the rounded corners*
1,1,$1+$1,$2,$3*
1,1,$1+$1,$4,$5*
1,1,$1+$1,$6,$7*
1,1,$1+$1,$8,$9*
0 Add four rect primitives between the rounded corners*
20,1,$1+$1,$2,$3,$4,$5,0*
20,1,$1+$1,$4,$5,$6,$7,0*
20,1,$1+$1,$6,$7,$8,$9,0*
20,1,$1+$1,$8,$9,$2,$3,0*%
G04 Aperture macros list end*
%ADD10RoundRect,0.150000X-0.825000X-0.150000X0.825000X-0.150000X0.825000X0.150000X-0.825000X0.150000X0*%
%ADD11RoundRect,0.250000X0.625000X-0.312500X0.625000X0.312500X-0.625000X0.312500X-0.625000X-0.312500X0*%
%ADD12RoundRect,0.250000X-0.325000X-0.650000X0.325000X-0.650000X0.325000X0.650000X-0.325000X0.650000X0*%
%ADD13RoundRect,0.250000X0.325000X0.650000X-0.325000X0.650000X-0.325000X-0.650000X0.325000X-0.650000X0*%
%ADD14RoundRect,0.250000X0.650000X-0.325000X0.650000X0.325000X-0.650000X0.325000X-0.650000X-0.325000X0*%
%ADD15RoundRect,0.250000X-0.650000X0.325000X-0.650000X-0.325000X0.650000X-0.325000X0.650000X0.325000X0*%
%ADD16RoundRect,0.225000X-0.375000X0.225000X-0.375000X-0.225000X0.375000X-0.225000X0.375000X0.225000X0*%
%ADD17RoundRect,0.250000X0.312500X0.625000X-0.312500X0.625000X-0.312500X-0.625000X0.312500X-0.625000X0*%
%ADD18RoundRect,0.150000X-0.587500X-0.150000X0.587500X-0.150000X0.587500X0.150000X-0.587500X0.150000X0*%
%ADD19RoundRect,0.225000X0.375000X-0.225000X0.375000X0.225000X-0.375000X0.225000X-0.375000X-0.225000X0*%
%ADD20RoundRect,0.225000X0.225000X0.375000X-0.225000X0.375000X-0.225000X-0.375000X0.225000X-0.375000X0*%
%ADD21RoundRect,0.250000X-0.625000X0.312500X-0.625000X-0.312500X0.625000X-0.312500X0.625000X0.312500X0*%
G04 APERTURE END LIST*
D10*
%TO.C,U1*%
X58375000Y-66460000D03*
X58375000Y-67730000D03*
X58375000Y-69000000D03*
X58375000Y-70270000D03*
X58375000Y-71540000D03*
X58375000Y-72810000D03*
X58375000Y-74080000D03*
X58375000Y-75350000D03*
X63325000Y-75350000D03*
X63325000Y-74080000D03*
X63325000Y-72810000D03*
X63325000Y-71540000D03*
X63325000Y-70270000D03*
X63325000Y-69000000D03*
X63325000Y-67730000D03*
X63325000Y-66460000D03*
%TD*%
D11*
%TO.C,R4*%
X68950000Y-89167500D03*
X68950000Y-86242500D03*
%TD*%
D12*
%TO.C,C2*%
X57175000Y-46605000D03*
X60125000Y-46605000D03*
%TD*%
D10*
%TO.C,U6*%
X71000000Y-61005000D03*
X71000000Y-62275000D03*
X71000000Y-63545000D03*
X71000000Y-64815000D03*
X71000000Y-66085000D03*
X71000000Y-67355000D03*
X71000000Y-68625000D03*
X75950000Y-68625000D03*
X75950000Y-67355000D03*
X75950000Y-66085000D03*
X75950000Y-64815000D03*
X75950000Y-63545000D03*
X75950000Y-62275000D03*
X75950000Y-61005000D03*
%TD*%
D12*
%TO.C,C19*%
X128925000Y-67405000D03*
X131875000Y-67405000D03*
%TD*%
D11*
%TO.C,R11*%
X122375000Y-57267500D03*
X122375000Y-54342500D03*
%TD*%
D10*
%TO.C,U13*%
X97450000Y-88035000D03*
X97450000Y-89305000D03*
X97450000Y-90575000D03*
X97450000Y-91845000D03*
X102400000Y-91845000D03*
X102400000Y-90575000D03*
X102400000Y-89305000D03*
X102400000Y-88035000D03*
%TD*%
%TO.C,U9*%
X84000000Y-62600000D03*
X84000000Y-63870000D03*
X84000000Y-65140000D03*
X84000000Y-66410000D03*
X88950000Y-66410000D03*
X88950000Y-65140000D03*
X88950000Y-63870000D03*
X88950000Y-62600000D03*
%TD*%
D13*
%TO.C,C9*%
X71800000Y-57505000D03*
X68850000Y-57505000D03*
%TD*%
D14*
%TO.C,C4*%
X55150000Y-78880000D03*
X55150000Y-75930000D03*
%TD*%
D10*
%TO.C,U14*%
X116900000Y-60700000D03*
X116900000Y-61970000D03*
X116900000Y-63240000D03*
X116900000Y-64510000D03*
X121850000Y-64510000D03*
X121850000Y-63240000D03*
X121850000Y-61970000D03*
X121850000Y-60700000D03*
%TD*%
D15*
%TO.C,C31*%
X125975000Y-64730000D03*
X125975000Y-67680000D03*
%TD*%
D13*
%TO.C,C20*%
X139650000Y-65305000D03*
X136700000Y-65305000D03*
%TD*%
D16*
%TO.C,D3*%
X66250000Y-87555000D03*
X66250000Y-90855000D03*
%TD*%
D11*
%TO.C,R9*%
X99375000Y-59667500D03*
X99375000Y-56742500D03*
%TD*%
%TO.C,R12*%
X121425000Y-84702500D03*
X121425000Y-81777500D03*
%TD*%
D14*
%TO.C,C13*%
X91575000Y-53380000D03*
X91575000Y-50430000D03*
%TD*%
D17*
%TO.C,R2*%
X77112500Y-57305000D03*
X74187500Y-57305000D03*
%TD*%
D11*
%TO.C,R8*%
X133025000Y-84502500D03*
X133025000Y-81577500D03*
%TD*%
D10*
%TO.C,U7*%
X68875000Y-75435000D03*
X68875000Y-76705000D03*
X68875000Y-77975000D03*
X68875000Y-79245000D03*
X68875000Y-80515000D03*
X68875000Y-81785000D03*
X68875000Y-83055000D03*
X73825000Y-83055000D03*
X73825000Y-81785000D03*
X73825000Y-80515000D03*
X73825000Y-79245000D03*
X73825000Y-77975000D03*
X73825000Y-76705000D03*
X73825000Y-75435000D03*
%TD*%
D11*
%TO.C,R7*%
X90325000Y-85262500D03*
X90325000Y-82337500D03*
%TD*%
D18*
%TO.C,Q9*%
X55312500Y-61105000D03*
X55312500Y-63005000D03*
X57187500Y-62055000D03*
%TD*%
D15*
%TO.C,C28*%
X105525000Y-88765000D03*
X105525000Y-91715000D03*
%TD*%
D10*
%TO.C,U5*%
X69100000Y-91155000D03*
X69100000Y-92425000D03*
X69100000Y-93695000D03*
X69100000Y-94965000D03*
X69100000Y-96235000D03*
X69100000Y-97505000D03*
X69100000Y-98775000D03*
X74050000Y-98775000D03*
X74050000Y-97505000D03*
X74050000Y-96235000D03*
X74050000Y-94965000D03*
X74050000Y-93695000D03*
X74050000Y-92425000D03*
X74050000Y-91155000D03*
%TD*%
D14*
%TO.C,C12*%
X76550000Y-76155000D03*
X76550000Y-73205000D03*
%TD*%
D19*
%TO.C,D4*%
X74250000Y-89405000D03*
X74250000Y-86105000D03*
%TD*%
D15*
%TO.C,C23*%
X127825000Y-87865000D03*
X127825000Y-90815000D03*
%TD*%
D14*
%TO.C,C5*%
X66150000Y-96755000D03*
X66150000Y-93805000D03*
%TD*%
D20*
%TO.C,D2*%
X77350000Y-53605000D03*
X74050000Y-53605000D03*
%TD*%
D13*
%TO.C,C8*%
X65525000Y-64405000D03*
X62575000Y-64405000D03*
%TD*%
D15*
%TO.C,C22*%
X89625000Y-89150000D03*
X89625000Y-92100000D03*
%TD*%
D13*
%TO.C,C27*%
X111250000Y-66005000D03*
X108300000Y-66005000D03*
%TD*%
%TO.C,C10*%
X71825000Y-72005000D03*
X68875000Y-72005000D03*
%TD*%
D15*
%TO.C,C16*%
X118625000Y-81765000D03*
X118625000Y-84715000D03*
%TD*%
D10*
%TO.C,U10*%
X81650000Y-88395000D03*
X81650000Y-89665000D03*
X81650000Y-90935000D03*
X81650000Y-92205000D03*
X86600000Y-92205000D03*
X86600000Y-90935000D03*
X86600000Y-89665000D03*
X86600000Y-88395000D03*
%TD*%
%TO.C,U2*%
X58400000Y-78595000D03*
X58400000Y-79865000D03*
X58400000Y-81135000D03*
X58400000Y-82405000D03*
X58400000Y-83675000D03*
X58400000Y-84945000D03*
X58400000Y-86215000D03*
X63350000Y-86215000D03*
X63350000Y-84945000D03*
X63350000Y-83675000D03*
X63350000Y-82405000D03*
X63350000Y-81135000D03*
X63350000Y-79865000D03*
X63350000Y-78595000D03*
%TD*%
D15*
%TO.C,C32*%
X120625000Y-88165000D03*
X120625000Y-91115000D03*
%TD*%
D10*
%TO.C,U8*%
X129225000Y-60200000D03*
X129225000Y-61470000D03*
X129225000Y-62740000D03*
X129225000Y-64010000D03*
X134175000Y-64010000D03*
X134175000Y-62740000D03*
X134175000Y-61470000D03*
X134175000Y-60200000D03*
%TD*%
%TO.C,U12*%
X100500000Y-62500000D03*
X100500000Y-63770000D03*
X100500000Y-65040000D03*
X100500000Y-66310000D03*
X105450000Y-66310000D03*
X105450000Y-65040000D03*
X105450000Y-63770000D03*
X105450000Y-62500000D03*
%TD*%
D11*
%TO.C,R13*%
X60150000Y-60867500D03*
X60150000Y-57942500D03*
%TD*%
D15*
%TO.C,C29*%
X113875000Y-60655000D03*
X113875000Y-63605000D03*
%TD*%
D10*
%TO.C,U11*%
X130475000Y-87930000D03*
X130475000Y-89200000D03*
X130475000Y-90470000D03*
X130475000Y-91740000D03*
X135425000Y-91740000D03*
X135425000Y-90470000D03*
X135425000Y-89200000D03*
X135425000Y-87930000D03*
%TD*%
D11*
%TO.C,R10*%
X105625000Y-85202500D03*
X105625000Y-82277500D03*
%TD*%
D15*
%TO.C,C14*%
X113675000Y-54130000D03*
X113675000Y-57080000D03*
%TD*%
%TO.C,C33*%
X55850000Y-51130000D03*
X55850000Y-54080000D03*
%TD*%
D11*
%TO.C,R6*%
X134875000Y-58067500D03*
X134875000Y-55142500D03*
%TD*%
D16*
%TO.C,D1*%
X68450000Y-65255000D03*
X68450000Y-68555000D03*
%TD*%
D14*
%TO.C,C26*%
X97325000Y-85115000D03*
X97325000Y-82165000D03*
%TD*%
%TO.C,C11*%
X66150000Y-77280000D03*
X66150000Y-74330000D03*
%TD*%
D15*
%TO.C,C24*%
X135925000Y-82765000D03*
X135925000Y-85715000D03*
%TD*%
D11*
%TO.C,R5*%
X91575000Y-59667500D03*
X91575000Y-56742500D03*
%TD*%
D21*
%TO.C,R3*%
X66150000Y-80480000D03*
X66150000Y-83405000D03*
%TD*%
D14*
%TO.C,C7*%
X66550000Y-61880000D03*
X66550000Y-58930000D03*
%TD*%
D13*
%TO.C,C3*%
X57700000Y-57805000D03*
X54750000Y-57805000D03*
%TD*%
D15*
%TO.C,C15*%
X81625000Y-76000000D03*
X81625000Y-78950000D03*
%TD*%
D10*
%TO.C,U15*%
X112850000Y-87935000D03*
X112850000Y-89205000D03*
X112850000Y-90475000D03*
X112850000Y-91745000D03*
X117800000Y-91745000D03*
X117800000Y-90475000D03*
X117800000Y-89205000D03*
X117800000Y-87935000D03*
%TD*%
D21*
%TO.C,R1*%
X65950000Y-68142500D03*
X65950000Y-71067500D03*
%TD*%
D15*
%TO.C,C25*%
X96675000Y-66005000D03*
X96675000Y-68955000D03*
%TD*%
%TO.C,C17*%
X81075000Y-63030000D03*
X81075000Y-65980000D03*
%TD*%
%TO.C,C6*%
X55550000Y-90960000D03*
X55550000Y-93910000D03*
%TD*%
D13*
%TO.C,C30*%
X126425000Y-93240000D03*
X123475000Y-93240000D03*
%TD*%
D15*
%TO.C,C1*%
X55550000Y-66730000D03*
X55550000Y-69680000D03*
%TD*%
%TO.C,C18*%
X91900000Y-63135000D03*
X91900000Y-66085000D03*
%TD*%
%TO.C,C21*%
X81425000Y-82475000D03*
X81425000Y-85425000D03*
%TD*%
D10*
%TO.C,U4*%
X58400000Y-89365000D03*
X58400000Y-90635000D03*
X58400000Y-91905000D03*
X58400000Y-93175000D03*
X58400000Y-94445000D03*
X58400000Y-95715000D03*
X58400000Y-96985000D03*
X63350000Y-96985000D03*
X63350000Y-95715000D03*
X63350000Y-94445000D03*
X63350000Y-93175000D03*
X63350000Y-91905000D03*
X63350000Y-90635000D03*
X63350000Y-89365000D03*
%TD*%
M02*
